<svg id="Layer_1" data-name="Layer 1" xmlns="http://www.w3.org/2000/svg" viewBox="0 0 1056.79 865.11"><defs><style>.cls-1,.cls-3{fill:#2a94f4;}.cls-1{opacity:0.06;}.cls-1,.cls-12,.cls-9{isolation:isolate;}.cls-2{fill:#f2f2f2;}.cls-4{fill:#007bff;}.cls-5{fill:#fff;}.cls-6{fill:#0b4870;}.cls-7{opacity:0.63;}.cls-12,.cls-8,.cls-9{fill:#d3d3d3;}.cls-9{opacity:0.55;}.cls-10{fill:#fcd2b1;}.cls-11{fill:#0e538c;}.cls-12{opacity:0.4;}</style></defs><title>home-page-image</title><path class="cls-1" d="M104.1,722.67S55.34,619.16,136.49,555.14s-67.67-129-14-208.52,236.27-15.06,231.67-162.35S503-2.91,553.65,41.58,611.24,303,756.58,279.66s281.9,284,165.29,442.6Z" transform="translate(-11.25 -24.39)"/><ellipse class="cls-2" cx="534.37" cy="713.98" rx="522.42" ry="54.47"/><path class="cls-3" d="M164.56,453.2c0-78.2,89.94-141.59,200.88-141.59S566.33,375,566.33,453.2,476.39,594.79,365.44,594.79c-1.27,0-2.54,0-3.8,0-17.78,19.46-57.07,48.07-131.74,42.39,0,0,44.1-16.91,59-53C215.92,562.91,164.56,512.29,164.56,453.2Z" transform="translate(-11.25 -24.39)"/><path class="cls-4" d="M844,341.76c0-99.14-114-179.51-254.69-179.51S334.65,242.62,334.65,341.76s114,179.51,254.69,179.51c1.62,0,3.22,0,4.83,0,22.54,24.67,72.35,60.94,167,53.74,0,0-55.91-21.44-74.77-67.21C778.92,480.86,844,416.67,844,341.76Z" transform="translate(-11.25 -24.39)"/><circle class="cls-5" cx="505.98" cy="314.3" r="27.62"/><circle class="cls-5" cx="581.93" cy="314.3" r="27.62"/><circle class="cls-5" cx="657.87" cy="314.3" r="27.62"/><path class="cls-3" d="M63.3,738.76c8.36-.62,24.78-7.11,28.75-16.33s2.13-18.56-3.08-27.25c-2.53-4.21-9.68-10.46-10.7-15.71-1.73-8.89,2-18.14,1.87-24.16S77,642.3,71,639.71c-15-6.52-27.48-18.59-31.56-20.56-4.89-2.36-11.37-1.83-14.69,2.39-6.41,8.12,1.81,14.24,4.78,18.11,12.6,16.41-8.95,22.18-9.46,38.14C19.79,686.25,42.54,702,42.53,704c0,3-1.91,5.22-4.26,7a11.25,11.25,0,0,0-3.44,11.83C39.29,736.35,54.08,739.45,63.3,738.76Z" transform="translate(-11.25 -24.39)"/><path class="cls-6" d="M47.62,659.76c2.31,6.08,4.46,12.22,6.6,18.37s4.15,12.32,6.24,18.48l5.92,18.59c1.91,6.22,3.8,12.44,5.54,18.71-2.31-6.08-4.47-12.22-6.6-18.36l-6.24-18.49c-2-6.2-4-12.37-5.91-18.59S49.36,666,47.62,659.76Z" transform="translate(-11.25 -24.39)"/><path class="cls-6" d="M59.81,698.34a110.55,110.55,0,0,1,3.76-13c.75-2.12,1.52-4.23,2.37-6.31a25.13,25.13,0,0,1,3.1-6,64.35,64.35,0,0,0-2,6.4c-.63,2.16-1.34,4.29-2.07,6.42A110.5,110.5,0,0,1,59.81,698.34Z" transform="translate(-11.25 -24.39)"/><path class="cls-6" d="M52,713.47a39.09,39.09,0,0,1,9,3.85A46.36,46.36,0,0,1,65,720c.66.48,1.3,1,1.94,1.5a3.81,3.81,0,0,1,1.38,2.08,4.05,4.05,0,0,0-1.79-1.49l-2.13-1.14c-1.42-.76-2.82-1.56-4.22-2.35C57.44,717,54.65,715.36,52,713.47Z" transform="translate(-11.25 -24.39)"/><path class="cls-6" d="M38.22,668.23a42.76,42.76,0,0,1,8.66,6.34c2.65,2.4,5.16,4.89,7.61,7.53a48.44,48.44,0,0,1-8.57-6.45C43.27,673.26,40.76,670.78,38.22,668.23Z" transform="translate(-11.25 -24.39)"/><g class="cls-7"><path class="cls-3" d="M65.36,738c4.09-2.83,8.45-6.94,7.24-12.47s-5.69-8.89-11.14-10.11c-2.65-.58-6.06-.32-8.43-1.56a5.1,5.1,0,0,1-2.41-2.51c-.92-2-.67-3-1.17-5s-1.16-3.9-3.46-5.13c-4.47-2.38-10.66.83-15.1-2.29-2.1-1.48-2.12-3.66-2.64-6.2s-1-6-3.11-8.12-4.92-3.9-8.17-2.33-4.47,5.54-5,9.21c-.32,2.43-.94,4.77-.71,7.53.64,7.66.8,14.11,7.43,19.52,5.35,4.37,13.64,1.18,20.08,16.11C44.67,748.21,60.75,741.21,65.36,738Z" transform="translate(-11.25 -24.39)"/></g><path class="cls-6" d="M29.25,707.45c3.48,1.85,6.88,3.84,10.26,5.85s6.73,4.07,10.06,6.16,6.63,4.24,9.88,6.46,6.5,4.42,9.66,6.78c-3.48-1.85-6.87-3.84-10.26-5.84s-6.72-4.08-10.06-6.18-6.62-4.23-9.87-6.45S32.42,709.81,29.25,707.45Z" transform="translate(-11.25 -24.39)"/><path class="cls-6" d="M46.46,718.66a55.47,55.47,0,0,1-4.24-7.12,17.84,17.84,0,0,1-1.34-4A8.2,8.2,0,0,1,41,703.3a15.78,15.78,0,0,0,.93,3.93c.46,1.25,1,2.48,1.57,3.7C44.62,713.39,46,715.87,46.46,718.66Z" transform="translate(-11.25 -24.39)"/><path class="cls-6" d="M51.94,730.84c.92-.54,1.66-1.19,2.52-1.77a9.19,9.19,0,0,1,2.89-1.43,6.27,6.27,0,0,1,3.33,0,7.08,7.08,0,0,1,2.78,1.57,12.13,12.13,0,0,0-5.74-.21,18.31,18.31,0,0,0-2.72,1A8,8,0,0,1,51.94,730.84Z" transform="translate(-11.25 -24.39)"/><path class="cls-6" d="M24.52,712.74a25.44,25.44,0,0,1,6.73-1.34,15.59,15.59,0,0,1,3.47.19A6.58,6.58,0,0,1,38,713a15,15,0,0,0-3.32-.25c-1.1,0-2.2.07-3.31.14A33,33,0,0,1,24.52,712.74Z" transform="translate(-11.25 -24.39)"/><polygon class="cls-4" points="165.46 627.49 134.67 632.54 116.28 635.57 79.06 628.89 55.14 624.6 93.17 614.75 165.46 627.49"/><polygon class="cls-4" points="134.67 632.54 116.28 635.57 79.06 628.89 93.17 625.23 134.67 632.54"/><path class="cls-6" d="M180.36,584.71l-16.11,44.2a1.21,1.21,0,0,0,1.05,1.62l48.9,3.88a6,6,0,0,0,6.09-3.92l14.86-40.78a1.21,1.21,0,0,0-1-1.63l-52.52-4.16A1.2,1.2,0,0,0,180.36,584.71Z" transform="translate(-11.25 -24.39)"/><polygon class="cls-8" points="208.33 602.91 222 565.39 170.62 561.31 156.95 598.83 208.33 602.91"/><path class="cls-8" d="M224.41,597.15a.72.72,0,0,0-1.14-.39l-11,8.53L202,607.84a1,1,0,0,0-.46.31l-.05,0-8.19,7.29-9.59-6.12a.63.63,0,0,0-.25-.09.77.77,0,0,0-.63.33l-8.62,7,1,1.14c3.46-2.85,7.61-6.16,8.28-6.82L193,617a.71.71,0,0,0,.3.1.74.74,0,0,0,.53-.17l8.72-7.76c.55-.12,10.17-2.5,10.17-2.5.34-.09,11.46-8.77,11.46-8.77A.71.71,0,0,0,224.41,597.15Z" transform="translate(-11.25 -24.39)"/><path class="cls-8" d="M226.45,595.13l-7.1,2.11,3.78.54.09,3.62Z" transform="translate(-11.25 -24.39)"/><polygon class="cls-9" points="173.13 574.75 174.36 571.38 168.25 570.9 167.02 574.27 173.13 574.75"/><polygon class="cls-9" points="171.33 579.59 172.56 576.21 166.46 575.73 165.23 579.1 171.33 579.59"/><polygon class="cls-9" points="169.54 584.42 170.76 581.04 164.66 580.56 163.43 583.93 169.54 584.42"/><polygon class="cls-9" points="167.74 589.25 168.97 585.87 162.87 585.39 161.64 588.76 167.74 589.25"/><path class="cls-8" d="M171.81,631l-51.26-4.12a2.19,2.19,0,0,1-2-2.36h0a2.18,2.18,0,0,1,2.35-2l51.26,4.12a2.21,2.21,0,0,1,2,2.36h0A2.2,2.2,0,0,1,171.81,631Z" transform="translate(-11.25 -24.39)"/><polygon class="cls-9" points="206.2 562.06 172.83 602.92 183.99 604.12 217.35 563.25 206.2 562.06"/><path class="cls-8" d="M216.31,634.59l-47.19-3.8a2.24,2.24,0,0,1-2.05-2.41h0a2.25,2.25,0,0,1,2.41-2l47.19,3.79a2.26,2.26,0,0,1,2.05,2.42h0A2.25,2.25,0,0,1,216.31,634.59Z" transform="translate(-11.25 -24.39)"/><rect class="cls-6" x="203.17" y="629.05" width="1.28" height="4.25" transform="translate(-452.9 759.44) rotate(-85.41)"/><rect class="cls-6" x="198.15" y="629.26" width="1.28" height="3.08" transform="translate(-457.13 754.17) rotate(-85.42)"/><path class="cls-9" d="M186.68,589.91a2.44,2.44,0,0,1-2.58,2.18,2.26,2.26,0,0,1-2-2.55,2.46,2.46,0,0,1,2.58-2.18A2.25,2.25,0,0,1,186.68,589.91Z" transform="translate(-11.25 -24.39)"/><path class="cls-8" d="M153.15,630.46c0,.55-2.34,1.14-2.86,1-1.16-.75-.71-1.42-1.89-2a11.62,11.62,0,0,0,3.48.43C152.51,629.84,153.19,629.6,153.15,630.46Z" transform="translate(-11.25 -24.39)"/><path class="cls-8" d="M151.05,631c1.37.89,4.21,3.2,4.41,3.36a21.38,21.38,0,0,1,2.39,2.09,3.07,3.07,0,0,1,.17,1.84.91.91,0,0,1-.9.51c-.15.78-2,0-2,.24,0,.81-1.09,1.09-3.27-.77-.13-.11-6.38-3.63-8.29-4.92a29.4,29.4,0,0,1,3.95-4.35A30.61,30.61,0,0,1,151.05,631Z" transform="translate(-11.25 -24.39)"/><path class="cls-8" d="M118.32,600.44a4.29,4.29,0,0,1,1.15.65c5.32,4.45,22.14,24.36,28.43,28.12a22.61,22.61,0,0,0-3.56,4.65c-10.21-6.39-33.83-25.17-32.53-29.8C113,599.82,116.3,599.64,118.32,600.44Z" transform="translate(-11.25 -24.39)"/><path class="cls-8" d="M117.3,563.52c1.72,6.18,1.93,26.89,3.92,36.78,2.45,12.14-6.89,9.51-8.81,6.08-5.08-9-13.47-36-9-39.08C105.27,566,117,562.4,117.3,563.52Z" transform="translate(-11.25 -24.39)"/><path class="cls-8" d="M119.44,562.71c4.26,5.16,2.23,32.44,3.21,37.31a21.72,21.72,0,0,1,.35,2.4c2.12,2.11,4.87,5.05,7.78,8.15,6.33,6.78,14.22,15.21,17.86,17.39l-5.07,7.13c-9-5.63-28.63-21-32.48-28.09-4.12-7.4-13-32.84-9.77-39.45C106.19,557.64,115.67,558.16,119.44,562.71Z" transform="translate(-11.25 -24.39)"/><path class="cls-6" d="M111.76,635.39c8.77-3.34,52.14-13,74.83-9.31,13.61,2.19,11.5,16,7.5,17.81-10.67,4.83-52.45,19.87-71.59,17.26C107.79,659.14,107.07,637.17,111.76,635.39Z" transform="translate(-11.25 -24.39)"/><path class="cls-6" d="M99.19,637.43c5.51-7.6,53-17.12,75.69-13.46,13.61,2.19,11,15.15,7.51,17.81-7.2,5.51-36.68,21.8-68,17.56C99.65,657.35,93.18,645.74,99.19,637.43Z" transform="translate(-11.25 -24.39)"/><path class="cls-10" d="M187.11,704.78a11.84,11.84,0,0,0-1.16,3.53,7.6,7.6,0,0,1-5.73.93,18.63,18.63,0,0,1,.78-5.76C181.34,703.56,185,702.17,187.11,704.78Z" transform="translate(-11.25 -24.39)"/><path class="cls-6" d="M196.92,639.17c-4.81,33.2-9.25,67.37-9.25,67.37-1.62-1.4-5.1-1.46-7.24.13,0,0-2.39-33.21-3.39-62.7C176.38,624.53,198.89,625.63,196.92,639.17Z" transform="translate(-11.25 -24.39)"/><path class="cls-8" d="M186.27,706.9a5.13,5.13,0,0,0,.84,1.35c1.43,1.89,8.51,6.49,8.37,9-.07,1.3-2.85,2.31-5.08,2.28s-4.16-.26-5.31-1c-1.43-1-4-4.82-4.49-5.6-1.23-2-.19-5-.19-5C182.16,705.16,186.27,706.9,186.27,706.9Z" transform="translate(-11.25 -24.39)"/><path class="cls-8" d="M185.77,710c1.95,1.88,8.62,5.49,8.5,7.65-.05,1.08-2.4,1.94-4.27,1.91a8.89,8.89,0,0,1-4.48-.86,20.21,20.21,0,0,1-3.77-4.72C179.81,710.16,183.88,708.18,185.77,710Z" transform="translate(-11.25 -24.39)"/><path class="cls-8" d="M135.66,703.24c-.6,3.29-1.55,6.51-1.55,6.51a17.72,17.72,0,0,1-6.7-3.45s1.45-2.24,2.5-4.33C132.35,699.71,135.32,703.27,135.66,703.24Z" transform="translate(-11.25 -24.39)"/><path class="cls-6" d="M164.28,655.68C148,685,136,705.24,136,705.24a6.21,6.21,0,0,0-6.67-2.54s8-23.22,17.51-51.15C153.06,633.14,170.92,643.72,164.28,655.68Z" transform="translate(-11.25 -24.39)"/><path class="cls-8" d="M127.71,706.06l.05,0a4.48,4.48,0,0,1,4.64-1.07l.07,0a3.09,3.09,0,0,1,1.85,3.12,8.11,8.11,0,0,1-.92,3.63c-.55.75-3.74,4.11-5.31,4.83-1.25.57-3.2.5-5.41.18s-4.79-1.76-4.66-3.05C118.29,711.13,126,707.7,127.71,706.06Z" transform="translate(-11.25 -24.39)"/><path class="cls-8" d="M128.76,708c2.16-1.51,5.86,1.09,3.35,4.56-.46.63-3.15,3.46-4.47,4.06a8.8,8.8,0,0,1-4.55.15c-1.86-.26-4-1.48-3.93-2.56C119.39,712.06,126.54,709.54,128.76,708Z" transform="translate(-11.25 -24.39)"/><path class="cls-8" d="M99.89,617.84c10.41,1.37,20.77,2.89,31.29,3.13,6.5.15,8.52-1.54,14.3-3.21.48,1.58.46,4.74,3.32,8.56,2.17,2.91,5.41,10.15-9.81,18.21C113.3,658.12,92.08,643,91.08,643a257.38,257.38,0,0,1,1.76-26.18C95.13,617.21,97.48,617.52,99.89,617.84Z" transform="translate(-11.25 -24.39)"/><path class="cls-10" d="M120,539.83c.76.56,8.61,4.95,10.86,4.61,0,.63-1.56,7.2-.11,10.75-.64,3.29-9.76,3.28-12.26-2.3C119.58,551.31,120.47,542.87,120,539.83Z" transform="translate(-11.25 -24.39)"/><path class="cls-10" d="M132.89,524.32c5.05.72,9.62,2.89,9.72,7.83,0,1.76-3.89,17-12.5,17.38-6.14.26-9-7-8.41-11.06l.8-5.58C123.26,527.52,127.46,523.55,132.89,524.32Z" transform="translate(-11.25 -24.39)"/><path class="cls-6" d="M109.27,555.33c2.33-.56,9.25-2.44,9.25-2.44s1.36,1.9,5.58,2.8a11.63,11.63,0,0,0,6.68-.5s8.3,3.51,9.74,4.39c8.6,5.26,6.34,10.9,6.71,18.64.17,3.61-4.62,29.12,1.41,45.28,2.09,5.61-16.87,23-51,14.86l-2.81-12.94-2.41,12.2c-1.32-.17-2.51-.29-3.55-.37.18-31.44,9.09-62,9.47-63.4C100,567.79,102.27,557,109.27,555.33Z" transform="translate(-11.25 -24.39)"/><path class="cls-6" d="M117.34,518c8-6.24,20.38-2.06,23.9,6.1,2.62,6.08,6.06,3.72,5.81,2.11.79,4-.91,7.54-8.73,7-1.64-.13,3.63,1.5,3.63,1.5S133.6,552,120.71,547.77c-3.84-1.26-7.17-5-7.17-5s4.17.69,2-2.71C111.24,533.45,110.31,523.53,117.34,518Z" transform="translate(-11.25 -24.39)"/><path class="cls-8" d="M195.46,623.92c.26.5-2.78,3.1-3.33,3.11-1.37,0-2.27-.5-2.18-1.53a18.16,18.16,0,0,0,4.12-1.55C194.62,623.63,195.14,623.13,195.46,623.92Z" transform="translate(-11.25 -24.39)"/><path class="cls-8" d="M192.36,625.75a67.29,67.29,0,0,1,8.46,2.07c.31.21,1.45.46,1.41,1.38,0,.61-1.08,1.06-1.08,1.06.56,1.34-1.84,1.18-1.73,1.34.56.81-.64,1.26-3.47.83-2.28-.35-5.8-.61-9.4-1.4a29.33,29.33,0,0,1,1.75-5.61A30,30,0,0,1,192.36,625.75Z" transform="translate(-11.25 -24.39)"/><path class="cls-8" d="M153.31,610.28a4.28,4.28,0,0,1,1.24.44c6,3.43,28.08,12.51,34.93,15.08a24.64,24.64,0,0,0-2.86,5.24c-10.2-2.25-40-10.24-39.53-15C147.5,611.63,151.17,609.86,153.31,610.28Z" transform="translate(-11.25 -24.39)"/><path class="cls-8" d="M145,571.6c2.45,5.93,5.16,26.46,8.33,36,3.9,11.75-5.69,10.27-8,7.09-6.13-8.37-19-34.24-15-37.87C132,575.29,144.51,570.53,145,571.6Z" transform="translate(-11.25 -24.39)"/><path class="cls-6" d="M147,568.35c.93,6.49,1.86,12.5,3.24,19.6s4.88,20.82,5,21.57c2.36,1.85,26.25,11.84,30.13,13.56l-2.88,8c-9.86-3.09-33.84-9-38.52-15.62-5-6.84-20-33.47-16-39.65S147,567.84,147,568.35Z" transform="translate(-11.25 -24.39)"/><polygon class="cls-4" points="116.28 635.57 116.28 722.48 149 712.84 165.45 627.48 116.28 635.57"/><polygon class="cls-4" points="116.28 635.57 55.14 624.6 67.89 712.84 116.28 722.48 116.28 635.57"/><path class="cls-6" d="M738.11,593.67l13.26,47.84a1.29,1.29,0,0,1-1.24,1.63H698.36a6.33,6.33,0,0,1-6.09-4.63L680,594.35a1.27,1.27,0,0,1,1.23-1.62h55.61A1.28,1.28,0,0,1,738.11,593.67Z" transform="translate(-11.25 -24.39)"/><polygon class="cls-5" points="682.03 610.81 670.78 570.2 725.18 570.2 736.44 610.81 682.03 610.81"/><path class="cls-8" d="M743.24,643.09l54.28-.06a2.32,2.32,0,0,0,2.31-2.3h0a2.33,2.33,0,0,0-2.31-2.31l-54.29.06a2.32,2.32,0,0,0-2.3,2.31h0A2.31,2.31,0,0,0,743.24,643.09Z" transform="translate(-11.25 -24.39)"/><path class="cls-8" d="M696.12,643.15l50-.06a2.37,2.37,0,0,0,2.36-2.37h0a2.37,2.37,0,0,0-2.37-2.36l-50,.06a2.37,2.37,0,0,0-2.37,2.36h0A2.39,2.39,0,0,0,696.12,643.15Z" transform="translate(-11.25 -24.39)"/><rect class="cls-6" x="696.1" y="615.54" width="4.49" height="1.35"/><rect class="cls-6" x="701.93" y="615.54" width="3.25" height="1.35"/><polygon class="cls-8" points="711.37 583.48 704.05 583.48 703.69 582.2 711.01 582.2 711.37 583.48"/><polygon class="cls-8" points="700.41 583.48 684.38 583.48 684.02 582.2 700.05 582.2 700.41 583.48"/><polygon class="cls-8" points="682.51 583.48 679.18 583.48 678.82 582.2 682.15 582.2 682.51 583.48"/><polygon class="cls-8" points="690.78 585.52 679.75 585.52 679.39 584.23 690.42 584.23 690.78 585.52"/><polygon class="cls-8" points="711.94 585.52 709.3 585.52 708.94 584.23 711.58 584.23 711.94 585.52"/><polygon class="cls-8" points="707.95 585.52 693.38 585.52 693.02 584.23 707.59 584.23 707.95 585.52"/><polygon class="cls-8" points="712.5 587.55 703.73 587.55 703.37 586.27 712.14 586.27 712.5 587.55"/><polygon class="cls-8" points="701.96 587.55 680.32 587.55 679.96 586.27 701.6 586.27 701.96 587.55"/><polygon class="cls-8" points="725.59 584.55 715.06 584.55 714.57 582.8 725.1 582.8 725.59 584.55"/><polygon class="cls-8" points="726.97 589.47 716.43 589.47 715.95 587.72 726.48 587.72 726.97 589.47"/><polygon class="cls-8" points="728.34 594.38 717.81 594.38 717.32 592.63 727.85 592.63 728.34 594.38"/><polygon class="cls-8" points="729.71 599.3 719.18 599.3 718.69 597.55 729.22 597.55 729.71 599.3"/><polygon class="cls-8" points="731.08 604.21 720.55 604.21 720.06 602.46 730.6 602.46 731.08 604.21"/><polygon class="cls-8" points="732.46 609.13 721.93 609.13 721.44 607.38 731.97 607.38 732.46 609.13"/><polygon class="cls-4" points="715.77 609.13 711.68 609.13 709.03 599.64 713.12 599.64 715.77 609.13"/><polygon class="cls-11" points="708.25 609.13 704.15 609.13 700.47 595.94 704.56 595.94 708.25 609.13"/><polygon class="cls-6" points="700.72 609.13 696.63 609.13 692.08 592.85 696.17 592.85 700.72 609.13"/><polygon class="cls-8" points="693.2 609.13 689.11 609.13 683.78 590.04 687.87 590.04 693.2 609.13"/><path class="cls-6" d="M894.63,593.67l13.26,47.84a1.29,1.29,0,0,1-1.24,1.63H854.88a6.33,6.33,0,0,1-6.09-4.63l-12.23-44.16a1.27,1.27,0,0,1,1.23-1.62h55.6A1.28,1.28,0,0,1,894.63,593.67Z" transform="translate(-11.25 -24.39)"/><polygon class="cls-5" points="838.55 610.81 827.3 570.2 881.7 570.2 892.96 610.81 838.55 610.81"/><path class="cls-8" d="M899.76,643.09,954,643a2.32,2.32,0,0,0,2.31-2.3h0a2.32,2.32,0,0,0-2.31-2.31l-54.28.06a2.32,2.32,0,0,0-2.31,2.31h0A2.31,2.31,0,0,0,899.76,643.09Z" transform="translate(-11.25 -24.39)"/><path class="cls-8" d="M852.64,643.15l50-.06a2.37,2.37,0,0,0,2.36-2.37h0a2.37,2.37,0,0,0-2.37-2.36l-50,.06a2.37,2.37,0,0,0-2.36,2.36h0A2.39,2.39,0,0,0,852.64,643.15Z" transform="translate(-11.25 -24.39)"/><rect class="cls-6" x="852.62" y="615.54" width="4.49" height="1.35"/><rect class="cls-6" x="858.45" y="615.54" width="3.25" height="1.35"/><polygon class="cls-8" points="867.89 583.48 860.57 583.48 860.21 582.2 867.53 582.2 867.89 583.48"/><polygon class="cls-8" points="856.93 583.48 840.9 583.48 840.54 582.2 856.57 582.2 856.93 583.48"/><polygon class="cls-8" points="839.03 583.48 835.7 583.48 835.34 582.2 838.67 582.2 839.03 583.48"/><polygon class="cls-8" points="847.3 585.52 836.27 585.52 835.91 584.23 846.94 584.23 847.3 585.52"/><polygon class="cls-8" points="868.46 585.52 865.82 585.52 865.46 584.23 868.1 584.23 868.46 585.52"/><polygon class="cls-8" points="864.47 585.52 849.9 585.52 849.54 584.23 864.11 584.23 864.47 585.52"/><polygon class="cls-8" points="869.02 587.55 860.25 587.55 859.89 586.27 868.66 586.27 869.02 587.55"/><polygon class="cls-8" points="858.48 587.55 836.84 587.55 836.48 586.27 858.12 586.27 858.48 587.55"/><path class="cls-8" d="M885.92,595.9l1,3.6,3.75,1.14a2.57,2.57,0,0,1-2.73,2.51,5.16,5.16,0,0,1-4.64-3.63A2.65,2.65,0,0,1,885.92,595.9Z" transform="translate(-11.25 -24.39)"/><path class="cls-11" d="M873,595.9h.07l1,3.67h3.54a2.64,2.64,0,0,1-2.62,3.57,5.14,5.14,0,0,1-4.63-3.62A2.65,2.65,0,0,1,873,595.9Z" transform="translate(-11.25 -24.39)"/><path class="cls-6" d="M860.13,595.9h.07l1,3.62,2.7-1.63a4.92,4.92,0,0,1,.86,1.63,2.66,2.66,0,0,1-2.62,3.62,5.14,5.14,0,0,1-4.63-3.62A2.65,2.65,0,0,1,860.13,595.9Z" transform="translate(-11.25 -24.39)"/><path class="cls-4" d="M847.24,595.9l.27,0,1,3.46,1-2.83a5.18,5.18,0,0,1,2.38,3,2.66,2.66,0,0,1-2.61,3.63,5.16,5.16,0,0,1-4.64-3.63A2.66,2.66,0,0,1,847.24,595.9Z" transform="translate(-11.25 -24.39)"/><polygon class="cls-8" points="882.11 584.55 871.58 584.55 871.09 582.8 881.62 582.8 882.11 584.55"/><polygon class="cls-8" points="883.49 589.47 872.96 589.47 872.47 587.72 883 587.72 883.49 589.47"/><polygon class="cls-8" points="884.86 594.38 874.33 594.38 873.84 592.63 884.37 592.63 884.86 594.38"/><polygon class="cls-8" points="886.23 599.3 875.7 599.3 875.21 597.55 885.74 597.55 886.23 599.3"/><polygon class="cls-8" points="887.6 604.21 877.07 604.21 876.59 602.46 887.12 602.46 887.6 604.21"/><polygon class="cls-8" points="888.98 609.13 878.45 609.13 877.96 607.38 888.49 607.38 888.98 609.13"/><polygon class="cls-4" points="872.29 609.13 868.2 609.13 865.55 599.64 869.64 599.64 872.29 609.13"/><polygon class="cls-11" points="864.77 609.13 860.67 609.13 856.99 595.94 861.08 595.94 864.77 609.13"/><polygon class="cls-6" points="857.24 609.13 853.15 609.13 848.6 592.85 852.7 592.85 857.24 609.13"/><polygon class="cls-8" points="849.72 609.13 845.63 609.13 840.3 590.04 844.39 590.04 849.72 609.13"/><polygon class="cls-12" points="858.86 568.34 890.55 614.11 869.23 614.11 837.53 568.34 858.86 568.34"/><rect class="cls-4" x="643.65" y="627.83" width="5.31" height="101.02"/><rect class="cls-4" x="701.22" y="627.83" width="5.31" height="101.02"/><rect class="cls-4" x="913.03" y="627.83" width="5.31" height="101.02"/><rect class="cls-4" x="981.47" y="627.83" width="5.31" height="101.02"/><rect class="cls-4" x="626.81" y="618.65" width="94.65" height="9.29"/><rect class="cls-4" x="721.46" y="618.65" width="281.63" height="9.29"/><path class="cls-11" d="M808.38,650.4c-9.13-.58-52.34,3.26-72.5,13.76-12.1,6.3-6.24,19.15-2,19.69,11.33,1.45,54.57,3.38,71.71-5C818.76,672.38,813.26,650.71,808.38,650.4Z" transform="translate(-11.25 -24.39)"/><path class="cls-8" d="M763,739a11.41,11.41,0,0,1,.58,3.57,7.38,7.38,0,0,0,5.37,1.77,18.05,18.05,0,0,0,.13-5.66C768.72,738.66,765.37,736.76,763,739Z" transform="translate(-11.25 -24.39)"/><path class="cls-11" d="M731.12,683.2c15.86,28.59,31.7,58.2,31.7,58.2,1-1.84,4.15-3.1,6.65-2.38,0,0-9.29-31.09-18.56-58.32C744.79,662.75,724.66,671.53,731.12,683.2Z" transform="translate(-11.25 -24.39)"/><path class="cls-8" d="M763.47,741.13a5.86,5.86,0,0,1-1,1.16c-1.66,1.61-9.18,5-9.44,7.44-.13,1.25,2.39,2.66,4.54,3s4.05.38,5.27-.18c1.53-.7,4.58-4,5.18-4.7,1.48-1.68.94-4.76.94-4.76C767.68,740.08,763.47,741.13,763.47,741.13Z" transform="translate(-11.25 -24.39)"/><path class="cls-8" d="M763.47,744.19c-2.17,1.51-9.14,4-9.36,6-.11,1.06,2,2.24,3.82,2.5a8.77,8.77,0,0,0,4.45-.14,19.87,19.87,0,0,0,4.35-4C769.18,745.25,765.57,742.72,763.47,744.19Z" transform="translate(-11.25 -24.39)"/><path class="cls-8" d="M804.36,739.55c.58,3.21,1.52,6.34,1.52,6.34a17.25,17.25,0,0,0,6.53-3.36s-1.41-2.18-2.44-4.21C807.59,736.11,804.69,739.58,804.36,739.55Z" transform="translate(-11.25 -24.39)"/><path class="cls-11" d="M776.47,693.2c15.85,28.59,27.61,48.3,27.61,48.3a6,6,0,0,1,6.5-2.48s-7.78-22.63-17.06-49.85C787.41,671.22,770,681.54,776.47,693.2Z" transform="translate(-11.25 -24.39)"/><path class="cls-8" d="M812.11,742.29l0,0a4.37,4.37,0,0,0-4.53-1l-.06,0a3,3,0,0,0-1.8,3,7.88,7.88,0,0,0,.89,3.54c.54.73,3.65,4,5.17,4.7,1.23.56,3.13.49,5.28.18s4.67-1.72,4.53-3C821.3,747.24,813.78,743.9,812.11,742.29Z" transform="translate(-11.25 -24.39)"/><path class="cls-8" d="M811.09,744.19c-2.1-1.47-5.71,1.06-3.27,4.45a20.18,20.18,0,0,0,4.36,4,8.61,8.61,0,0,0,4.44.14c1.81-.26,3.93-1.44,3.82-2.5C820.22,748.14,813.25,745.7,811.09,744.19Z" transform="translate(-11.25 -24.39)"/><path class="cls-8" d="M835.78,639c-10.15,1.33-20.25,2.82-30.5,3.05a59.8,59.8,0,0,1-18-2.19c0,9.89-1.9,11.4-6.15,14.06,3,10.86,9.06,13.73,14.22,15.65,26.55,9.88,48-6,49-6.1A250,250,0,0,0,842.64,638C840.42,638.4,838.12,638.71,835.78,639Z" transform="translate(-11.25 -24.39)"/><path class="cls-10" d="M806.93,563c-.73.54-8.38,4.82-10.57,4.49,0,.61,1.51,7,.1,10.47.62,3.21,9.51,3.21,11.94-2.23C807.38,574.17,806.51,566,806.93,563Z" transform="translate(-11.25 -24.39)"/><path class="cls-10" d="M795.94,547.73c-5-.32-9.75.84-10.84,5.53-.38,1.67.32,17,8.47,19.08,5.8,1.47,10-4.9,10.22-8.88,0,0,.36-5.42.36-5.48C804.49,552.71,801.27,548.08,795.94,547.73Z" transform="translate(-11.25 -24.39)"/><path class="cls-4" d="M817.43,578.09c-2.27-.54-9-2.37-9-2.37s-1.33,1.84-5.44,2.72a11.32,11.32,0,0,1-6.51-.49s-8.09,3.43-9.49,4.29c-8.39,5.13-6.19,10.62-6.54,18.16-.17,3.52.7,40.77-7.84,53.19.29.5,3.37,7.88,10.42,9.75l1.73-15.29,1.57,16c16.52,3.54,29.18-3,42.45-5L830,639l3.82,19.34c1.28-.16,2.44-.28,3.46-.36-.18-30.65-8.86-60.4-9.23-61.8C826.51,590.24,824.25,579.71,817.43,578.09Z" transform="translate(-11.25 -24.39)"/><path class="cls-6" d="M809.56,541.73c-7.75-6.08-19.86-2-23.29,5.95-2.56,5.93-5.91,3.63-5.67,2.06-.77,3.94.89,7.35,8.51,6.78,1.6-.12-3.54,1.47-3.54,1.47s8.14,16.87,20.71,12.73c3.73-1.22,7-4.87,7-4.87s-4.08.67-1.93-2.64C815.5,556.76,816.41,547.1,809.56,541.73Z" transform="translate(-11.25 -24.39)"/><path class="cls-10" d="M724.86,633.28c-.33.43,2.11,3.47,2.64,3.57,1.32.25,2.26-.07,2.36-1.08a17.26,17.26,0,0,1-3.67-2.22C725.71,633.15,725.31,632.58,724.86,633.28Z" transform="translate(-11.25 -24.39)"/><path class="cls-10" d="M727.51,635.58a66.41,66.41,0,0,0-8.48.48c-.33.15-1.48.19-1.6,1.08-.08.59.85,1.21.85,1.21-.77,1.18,1.56,1.45,1.42,1.59-.68.68.38,1.31,3.18,1.41,2.24.07,5.66.45,9.25.33a27.91,27.91,0,0,0-.68-5.68A29.33,29.33,0,0,0,727.51,635.58Z" transform="translate(-11.25 -24.39)"/><path class="cls-10" d="M767.68,627.72a4,4,0,0,0-1.27.19c-6.39,2.22-29.13,7-36.15,8.24a24.65,24.65,0,0,1,1.81,5.53c10.17-.34,40.14-2.69,40.56-7.36C773,630,769.81,627.7,767.68,627.72Z" transform="translate(-11.25 -24.39)"/><path class="cls-8" d="M782.58,592.14c-3.42,5.24-9.66,24.43-14.41,33.05-5.82,10.56,3.63,10.85,6.42,8.22,7.37-6.93,24.28-29.43,21.09-33.62C794.29,598,783.19,591.19,782.58,592.14Z" transform="translate(-11.25 -24.39)"/><path class="cls-4" d="M781.17,588.66c-2,6.05-4,11.64-6.6,18.19s-8.38,19.09-8.67,19.79c-2.59,1.34-27.26,6.66-31.29,7.62l1.33,8.23c10-1.21,34-2.6,39.69-8.11,6-5.67,25.16-28.52,22.44-35.14S781.33,588.17,781.17,588.66Z" transform="translate(-11.25 -24.39)"/><polygon class="cls-6" points="820.72 669.75 840.92 728.56 843.18 728.56 822.98 669.75 820.72 669.75"/><polygon class="cls-6" points="786.56 669.75 806.77 728.56 809.03 728.56 788.83 669.75 786.56 669.75"/><path class="cls-6" d="M836.46,607.18c-14.17,0-27.8,11.49-30.45,25.65l-8.87,36.83C795.58,678,786.45,684,778,684H759.54a5,5,0,1,0,0,10.07l76.07.08a7.38,7.38,0,0,0,7.24-6l14.47-55.36C860,618.67,850.63,607.18,836.46,607.18Z" transform="translate(-11.25 -24.39)"/><path class="cls-6" d="M836.46,607.18c-14.17,0-27.8,11.49-30.45,25.65l-8.87,36.87c-1.56,8.32-10.69,14.4-19.16,14.4H759.54a5,5,0,1,0,0,10l2.39,0a5.08,5.08,0,0,1,4.63-3.09H785c8.47,0,17.6-6,19.16-14.33L813,639.83c2.65-14.16,16.28-25.64,30.45-25.64a22.36,22.36,0,0,1,11.39,3C851.31,611.09,844.72,607.18,836.46,607.18Z" transform="translate(-11.25 -24.39)"/><polygon class="cls-6" points="742.18 728.56 744.44 728.56 764.64 669.75 762.38 669.75 742.18 728.56"/><polygon class="cls-6" points="776.33 728.56 778.59 728.56 798.79 669.75 796.53 669.75 776.33 728.56"/><path class="cls-8" d="M941.85,650.73c-8.5.65-47,8.73-64.21,19.35-10.33,6.38-4.2,13.65,2.06,14.94,10.41,2.15,48.59-3.11,63.29-11.73C954.29,666.66,946.38,650.39,941.85,650.73Z" transform="translate(-11.25 -24.39)"/><path class="cls-10" d="M905.07,739.33a11.11,11.11,0,0,1,.56,3.48,7.22,7.22,0,0,0,5.23,1.72A8.29,8.29,0,0,0,911,739C910.62,738.08,907.39,737.18,905.07,739.33Z" transform="translate(-11.25 -24.39)"/><path class="cls-10" d="M873.44,681.4c15.44,27.84,32,59,32,59,2.42-.71,4.07,0,5.53-1.4,0,0-8.64-29.9-17.67-56.41C887.36,665.12,867.14,670.05,873.44,681.4Z" transform="translate(-11.25 -24.39)"/><path class="cls-8" d="M905.54,741.44a5.31,5.31,0,0,1-1,1.14c-1.62,1.55-8.94,4.81-9.19,7.23-.13,1.22,2.33,2.59,4.42,2.89s3.94.38,5.13-.17c1.49-.68,4.46-3.91,5-4.58,1.45-1.63.93-4.63.93-4.63C909.65,740.42,905.54,741.44,905.54,741.44Z" transform="translate(-11.25 -24.39)"/><path class="cls-8" d="M905.54,744.42c-2.11,1.47-8.9,3.85-9.11,5.89-.11,1,2,2.18,3.73,2.44a8.61,8.61,0,0,0,4.32-.14,19.33,19.33,0,0,0,4.24-3.86C911.1,745.45,907.59,743,905.54,744.42Z" transform="translate(-11.25 -24.39)"/><path class="cls-10" d="M942.31,740.5c1,1.77.78,4,1.64,5.58a16.85,16.85,0,0,0,6.35-3.27s-1.37-2.13-2.37-4.11C944.72,737.68,942.15,740.21,942.31,740.5Z" transform="translate(-11.25 -24.39)"/><path class="cls-10" d="M915.31,694.77c15.44,27.84,27.39,46.33,27.39,46.33a4.45,4.45,0,0,1,5.41-2.05s-7.17-21.69-16.2-48.2C926,673.37,909,683.41,915.31,694.77Z" transform="translate(-11.25 -24.39)"/><path class="cls-8" d="M950,742.58l0-.05a4.24,4.24,0,0,0-4.4-1l-.06,0a2.91,2.91,0,0,0-1.76,3,7.58,7.58,0,0,0,.87,3.45c.53.71,3.55,3.9,5,4.59,1.19.54,3,.47,5.13.17s4.55-1.67,4.42-2.9C959,747.39,951.64,744.13,950,742.58Z" transform="translate(-11.25 -24.39)"/><path class="cls-8" d="M949,744.42c-2-1.43-5.56,1-3.18,4.33a19.33,19.33,0,0,0,4.24,3.86,8.61,8.61,0,0,0,4.32.14c1.76-.26,3.84-1.41,3.73-2.44C957.92,748.27,951.12,745.89,949,744.42Z" transform="translate(-11.25 -24.39)"/><path class="cls-6" d="M926.35,644.45c-5,13.93-50,13.93-56.08,32.49,17.11-2,26,20.17,45.47,23.45,29,4.9,48.35-13.35,56.71-25.46,0-7.65-2.61-23-3.52-31.59C966.86,643.75,931.56,646,926.35,644.45Z" transform="translate(-11.25 -24.39)"/><path class="cls-10" d="M945,568c-.71.54-8.16,4.7-10.3,4.38,0,.59,1.48,6.83.11,10.2.6,3.12,9.86,4.62,12.24-.68C946,580.37,944.56,570.87,945,568Z" transform="translate(-11.25 -24.39)"/><path class="cls-10" d="M934.27,553.13c-4.83-.32-9.5.82-10.55,5.38-.38,1.63.31,16.58,8.24,18.58,5.65,1.43,9.7-4.77,9.95-8.64,0,0,.35-5.29.35-5.34C942.59,558,939.46,553.47,934.27,553.13Z" transform="translate(-11.25 -24.39)"/><path class="cls-8" d="M946.41,580.38a2.86,2.86,0,0,1-2.59,2.26,39.37,39.37,0,0,1-9-.08c-5.24,1.37-5.54,6.57-9,10.17-5,5.11-8.64,11.14-6.81,16.45,1.11,3.24,14.08,21.13,5.37,38.16,0,0,11.58,12.86,48,12.86-.17-29.84-9.17-28.1-8.93-53C963.58,588.05,946.41,580.38,946.41,580.38Z" transform="translate(-11.25 -24.39)"/><path class="cls-6" d="M946.28,548.6c-7.55-5.92-17.16-2.8-21.43,4.48-3.65,6.22-4.31,11.86-.56,16.56a18.11,18.11,0,0,1,.3-8.56s8.37,19.3,19.75,14.44c3.51-1.5,2.83-4.09,4.92-7.32C953.32,561.92,953,553.83,946.28,548.6Z" transform="translate(-11.25 -24.39)"/><path class="cls-8" d="M937.88,546.58c-1.35,1.58-.9,4.18,1,5.81s4.56,1.67,5.91.09.9-4.18-1-5.82S939.23,545,937.88,546.58Z" transform="translate(-11.25 -24.39)"/><path class="cls-8" d="M875.52,634.08c-.3.43,2.2,3.28,2.72,3.36,1.29.18,2.2-.17,2.25-1.15a17.47,17.47,0,0,1-3.67-2C876.35,633.92,875.93,633.38,875.52,634.08Z" transform="translate(-11.25 -24.39)"/><path class="cls-10" d="M878.2,636.21A62.38,62.38,0,0,0,870,637c-.32.15-1.43.24-1.51,1.11-.05.58.88,1.14.88,1.14-.71,1.19,1.57,1.35,1.44,1.49-.63.69.43,1.26,3.15,1.24,2.19,0,5.53.2,9-.07a27.89,27.89,0,0,0-.9-5.5A27,27,0,0,0,878.2,636.21Z" transform="translate(-11.25 -24.39)"/><path class="cls-10" d="M916.94,626.87a3.88,3.88,0,0,0-1.22.24c-6.13,2.42-28.05,8-34.83,9.53a23.4,23.4,0,0,1,2,5.3c9.89-.75,38.94-4.3,39.15-8.86C922.23,628.9,919,626.76,916.94,626.87Z" transform="translate(-11.25 -24.39)"/><path class="cls-10" d="M929.94,591.63c-3.1,5.24-8.37,24.18-12.63,32.76-5.22,10.52,4,10.41,6.6,7.73,6.87-7,22.38-29.65,19.1-33.59C941.58,596.82,930.5,590.68,929.94,591.63Z" transform="translate(-11.25 -24.39)"/><path class="cls-8" d="M921.2,610.57c.59-1.56,1.13-3,1.57-4.29a84.89,84.89,0,0,1,8.67-18.52c1.83-2.75,10.95,3.82,13.87,10.13,2,4.25-5.35,16-12.07,25A31.69,31.69,0,0,0,921.2,610.57Z" transform="translate(-11.25 -24.39)"/><polygon class="cls-6" points="958.06 669.44 978.26 728.25 980.53 728.25 960.32 669.44 958.06 669.44"/><polygon class="cls-6" points="923.91 669.44 944.11 728.25 946.37 728.25 926.17 669.44 923.91 669.44"/><path class="cls-6" d="M973.81,606.88c-14.17,0-27.81,11.48-30.46,25.65l-8.87,36.83c-1.56,8.32-10.68,14.36-19.15,14.36H896.88a5,5,0,0,0,0,10.06l76.07.08a7.34,7.34,0,0,0,7.23-6l14.47-55.36C997.31,618.36,988,606.88,973.81,606.88Z" transform="translate(-11.25 -24.39)"/><path class="cls-6" d="M973.81,606.88c-14.17,0-27.81,11.48-30.46,25.65l-8.87,36.86c-1.56,8.33-10.68,14.4-19.15,14.4H896.88a5,5,0,1,0,0,10l2.39,0a5.05,5.05,0,0,1,4.62-3.1h18.45c8.47,0,17.59-6,19.15-14.33l8.87-36.82c2.66-14.16,16.29-25.64,30.46-25.64a22.41,22.41,0,0,1,11.39,3C988.65,610.79,982.06,606.88,973.81,606.88Z" transform="translate(-11.25 -24.39)"/><polygon class="cls-6" points="879.52 728.25 881.78 728.25 901.99 669.44 899.72 669.44 879.52 728.25"/><polygon class="cls-6" points="913.67 728.25 915.94 728.25 936.14 669.44 933.88 669.44 913.67 728.25"/><path class="cls-6" d="M971.58,560.2c-5.44-31.32-29.78-21.7-32.23-12.12-.62,2.42,1.51,4.46,4.32,2.94,3.35-1.81,14.71-4.73,8.22,17.94-1.71,6-9.89,9.79,7.13,20.25,15.4,9.47,2.9,13.41,3.82,17.88,2.36,11.5,31.85-14,15.72-31C975.29,572.63,973.5,571.22,971.58,560.2Z" transform="translate(-11.25 -24.39)"/><ellipse class="cls-2" cx="200.66" cy="811.41" rx="110.47" ry="6.14"/><ellipse class="cls-2" cx="840.45" cy="843.63" rx="110.47" ry="9.21"/><ellipse class="cls-2" cx="381.7" cy="858.2" rx="110.47" ry="6.9"/><ellipse class="cls-2" cx="590.37" cy="806.04" rx="110.47" ry="6.9"/></svg>