<svg id="Layer_1" data-name="Layer 1" xmlns="http://www.w3.org/2000/svg" xmlns:xlink="http://www.w3.org/1999/xlink" viewBox="0 0 1048.74 747.84"><defs><style>.cls-1{fill:none;}.cls-2{opacity:0.07;}.cls-3,.cls-7{fill:#2a94f4;}.cls-4{opacity:0.51;}.cls-5{fill:#007bff;}.cls-6{fill:#f7f7f7;}.cls-7{opacity:0.17;isolation:isolate;}.cls-8{clip-path:url(#clip-path);}.cls-9{fill:#b97a59;}.cls-10{fill:#0b4870;}.cls-11{fill:#aa6b4f;}.cls-12{fill:#d3d3d3;}</style><clipPath id="clip-path" transform="translate(-16.13 -20.85)"><circle class="cls-1" cx="552.09" cy="305.33" r="40.75"/></clipPath></defs><title>setup</title><g class="cls-2"><path class="cls-3" d="M949.41,304.33c13.18,24.17,32.56,46.94,34.16,74.11,2.59,43.75-40,76.51-57.33,117.06-21.38,49.74-3.4,108.27-22.38,158.81-13.78,36.55-47.34,65.92-86.89,75.51-29.57,7.19-60.73,4-91.29,4.19-86.7.8-173.19,30.76-258.89,17.18-42.35-6.79-82.3-24-124.65-29.36-50.94-6.6-110.27,1.39-146.63-33.16-50.93-48.35-13.18-137.24-51.33-195.17-12.39-18.78-32.16-33.36-38.76-54.33-7.79-24.77,4.8-50.94,20.38-72.12,15.58-21,35-40.35,43.35-64.92,7.59-22.17,3-46.34-6.4-67.92-14.38-33.16,25.77-109.07,105.68-103.27,36.55,2.59,53.13-39.76,93.28-51.54C407.66,66,465.39,76.8,499.15,88c34.36,11.38,76.91,17.38,96.68-11.79C623.6,34.85,706.7,28.46,744.06,95.58c13.58,24.37,25.76,43.55,54.73,41.55C955.8,126.94,929.63,268.57,949.41,304.33ZM521.32,78c0,5.59,0,15.18,24.77,13.58,7.59-.4,13.79-4.59,13.79-10.18s-6.2-10.19-13.79-10.19C538.5,71.41,521.32,69,521.32,78Zm-243.9,27.37a4,4,0,0,0-1.6,2c-1.6,2.4-4.4,4-7.19,5.2A12.65,12.65,0,0,0,264,115a4.89,4.89,0,0,0,.4,7.19c1.8,1.4,4.2,1.6,6.59,1.4a42.86,42.86,0,0,0,23.78-8.79C303.39,107.76,282.21,102.77,277.42,105.37Zm-23.58,12.78c-3-2-6.59-.8-9.58.6a3.15,3.15,0,0,0-1.4,1.4c-.4,1.4,1.4,2.4,2.79,2.8,2.2.6,4.6,1.39,6.8.6C254.64,123,256.84,120.15,253.84,118.15ZM144.38,297.34c-2.2-6.6-7.2-9.79-15-6-4.59,2.2-7.79,6.4-10.58,10.59-4.4,6.79-8.19,14.38-7.19,22.17a20.87,20.87,0,0,0,8.79,14.59,12.13,12.13,0,0,0,6.79,2.39c2.79,0,5.19-1.59,7.39-3.19,5-3.8,8.79-9,12.58-13.79,2-2.59,4-5.39,4.4-8.39C152.57,308.72,146.37,303.33,144.38,297.34Zm803,201.75c-2,.8-4,1.8-5,3.6a9.28,9.28,0,0,0-1.2,4.59,83.82,83.82,0,0,0-.6,10c0,3.6.4,7.59,3.2,10.19,3.79,3.4,9.78,2.2,14.58.8,2.79-.8,5.79-1.6,7.59-3.8,1.4-1.59,1.8-3.59,2.2-5.59,1.19-6.59,4.79-16.58.79-20.18C964.59,495.1,954.4,496.3,947.41,499.09ZM669.94,755.59a13,13,0,0,0-2.59,3.19,6.88,6.88,0,0,0,3.59,9.19,11.35,11.35,0,0,0,5.8.6c16.58-.2,34.35-.8,47.54-10.39,1.6-1.2,3.2-2.79,3-4.59-.4-2.4-3.2-3.4-5.6-3.8C705.1,746.8,683.13,743.2,669.94,755.59ZM356.32,730c-14.38-2-37.15-4.6-37.15,7,0,4.39,20.37,8.59,23.57,9.39,10.39,2.59,20.17,6.19,30.16,10,18.78,7,34-2.39,19-13C379.69,734.81,367.91,731.61,356.32,730Z" transform="translate(-16.13 -20.85)"/></g><g class="cls-4"><path class="cls-5" d="M719.88,585.79c-4.59-8.79,6-18.18,15.79-20s20.77-.4,28.36-6.59c10.39-8.19,9.79-26,21.18-32.56,9.18-5.19,21.37-.2,31-4.39,12-5.2,15.38-22,27.37-27.57,9.38-4.6,21.77.6,26.56,9.79s2.6,21.17-4,29.36c-5.2,6.19-13,10.79-16.18,18.18-5,11.79,3,26-1.8,38-8.59,22-49.34,15.39-56.53,38-1.6,5-1,10.39-1.4,15.78-1.2,15.58-12.19,29.17-25.77,37s-29.56,10.38-45.14,11.58c-6.4.4-13.19.6-18.78-2.4-5.4-2.79-9-7.79-12-13.18-18.78-33.76-26.57-78.11,31.36-90.89" transform="translate(-16.13 -20.85)"/></g><g class="cls-4"><path class="cls-5" d="M415.65,555.23c6.39-10.39-5.59-22.78-17.38-25.77s-25.17-2.4-34.16-10.59c-11.78-11-9.59-32.76-23-41.75-10.79-7.19-26-2.2-37.56-8.19-14.38-7.39-16.77-28.37-30.76-36.36-11.18-6.39-26.77-1.39-33.56,9.59s-5.19,25.77,2.2,36.36c5.79,8.19,14.78,14.38,18.18,23.77,5.19,14.78-6,31.56-1.4,46.54,8.59,27.77,59.13,23.38,65.52,51.74,1.4,6.39.2,12.79.2,19.38,0,19.18,12.19,36.95,28.17,47.74s35.15,15.58,54.13,18.38c7.79,1.2,16,2,23.17-1.2,6.8-2.8,11.79-8.79,16-15,26.17-40.15,39.76-93.69-29.76-114.66" transform="translate(-16.13 -20.85)"/></g><path class="cls-5" d="M833.55,75l-14,4.8-6-17.38A61.85,61.85,0,1,0,696.71,103l6,17.38-14,4.79a21,21,0,0,0-13,26.77l39.35,113.66a21.22,21.22,0,0,0,26.77,13.19l144.62-50.14a21.36,21.36,0,0,0,13.19-27L860.32,88A20.73,20.73,0,0,0,833.55,75ZM723.28,93.58A33.83,33.83,0,1,1,787.2,71.41l6,17.38L729.27,111Zm83.9,103.68,10,29a2.59,2.59,0,0,1-1.6,3l-14,4.79a2.24,2.24,0,0,1-2.8-1.4l-10-29a27,27,0,0,1-24.57-18.18,27,27,0,1,1,42.95,11.79Z" transform="translate(-16.13 -20.85)"/><path class="cls-5" d="M683.53,637.73c14.18-6,26.77-17.38,37.35-28.17,28.37-29.36,46-67.52,55.34-107.07,8.39-35.76,10.18-72.51,8.59-109.07-.2-3-5-3.19-4.8,0,4,82.1-12.38,182.58-85.7,232.52a84.13,84.13,0,0,1-13,7.59c-3,1.2-.6,5.4,2.2,4.2Z" transform="translate(-16.13 -20.85)"/><path class="cls-5" d="M776.82,488.71s4.59-26.57,39.75-30.77C816.77,457.94,803.78,489.31,776.82,488.71Z" transform="translate(-16.13 -20.85)"/><path class="cls-5" d="M765.43,527.86s10.79-24.77,45.94-20.58C811.17,507.28,791.4,534.85,765.43,527.86Z" transform="translate(-16.13 -20.85)"/><path class="cls-5" d="M750.45,562.62s16-21.78,49.34-9.79C799.79,552.83,774.22,575.2,750.45,562.62Z" transform="translate(-16.13 -20.85)"/><path class="cls-5" d="M782.21,447.36s4.59-26.17,39.15-30.17C821.36,417.19,808.78,448.16,782.21,447.36Z" transform="translate(-16.13 -20.85)"/><path class="cls-5" d="M782.81,402S763,384.23,778,352.67C778,352.87,797.39,379.84,782.81,402Z" transform="translate(-16.13 -20.85)"/><path class="cls-5" d="M782.81,429s-26.17-4.8-30-39.35C753,389.43,783.81,402.41,782.81,429Z" transform="translate(-16.13 -20.85)"/><path class="cls-5" d="M780.21,468.73s-26.17-4.79-30-39.35C750.45,429.38,781.21,442.16,780.21,468.73Z" transform="translate(-16.13 -20.85)"/><path class="cls-5" d="M773.42,506.09s-25.77-6.6-27-41.35C746.45,464.54,776.22,479.52,773.42,506.09Z" transform="translate(-16.13 -20.85)"/><path class="cls-5" d="M761.63,543.24s-25.76-6.59-27-41.35C734.67,501.89,764.43,516.87,761.63,543.24Z" transform="translate(-16.13 -20.85)"/><path class="cls-5" d="M416.25,627.74c-14.18-6-26.77-17.38-37.36-28.17C350.53,570.21,333,532.05,323.56,492.5,315.17,456.74,313.37,420,315,383.43c.2-3,5-3.19,4.8,0-4,82.1,12.38,182.58,85.69,232.52a83.89,83.89,0,0,0,13,7.59c3,1.2.6,5.4-2.2,4.2Z" transform="translate(-16.13 -20.85)"/><path class="cls-5" d="M323,478.72s-4.59-26.57-39.75-30.76C283,448,296,479.32,323,478.72Z" transform="translate(-16.13 -20.85)"/><path class="cls-5" d="M334.55,517.87S323.76,493.1,288.6,497.3C288.6,497.3,308.38,524.86,334.55,517.87Z" transform="translate(-16.13 -20.85)"/><path class="cls-5" d="M349.53,552.63s-16-21.77-49.34-9.79C300,542.84,325.56,565.21,349.53,552.63Z" transform="translate(-16.13 -20.85)"/><path class="cls-5" d="M317.57,437.37S313,411.2,278.42,407.2C278.42,407.2,291,438.17,317.57,437.37Z" transform="translate(-16.13 -20.85)"/><path class="cls-5" d="M317.17,392s19.77-17.78,4.79-49.34C322,342.88,302.39,369.85,317.17,392Z" transform="translate(-16.13 -20.85)"/><path class="cls-5" d="M317,419s26.17-4.79,30-39.35C346.93,379.44,316,392.42,317,419Z" transform="translate(-16.13 -20.85)"/><path class="cls-5" d="M319.57,458.74s26.16-4.79,30-39.35C349.53,419.39,318.57,432.17,319.57,458.74Z" transform="translate(-16.13 -20.85)"/><path class="cls-5" d="M326.36,496.1s25.77-6.59,27-41.35C353.33,454.55,323.56,469.53,326.36,496.1Z" transform="translate(-16.13 -20.85)"/><path class="cls-5" d="M338.14,533.25s25.77-6.59,27-41.35C365.11,491.9,335.35,506.88,338.14,533.25Z" transform="translate(-16.13 -20.85)"/><path class="cls-3" d="M669.15,697.26H442.82a42.16,42.16,0,0,1-42.15-42.15V130.34a42.16,42.16,0,0,1,42.15-42.15H669a42.15,42.15,0,0,1,42.14,42.15V655.11A42,42,0,0,1,669.15,697.26Z" transform="translate(-16.13 -20.85)"/><path class="cls-6" d="M667.35,675.68H444.62a29.49,29.49,0,0,1-29.57-29.56V135.53A29.5,29.5,0,0,1,444.62,106H667.35a29.49,29.49,0,0,1,29.56,29.56V646.12A29.49,29.49,0,0,1,667.35,675.68Z" transform="translate(-16.13 -20.85)"/><path class="cls-3" d="M640.38,106H622a10.23,10.23,0,0,0-10.19,10.18v7.2a10.22,10.22,0,0,1-10.18,10.18H519.92a10.22,10.22,0,0,1-10.18-10.18v-7.2A10.23,10.23,0,0,0,499.55,106H447.41v-5.2h193V106Z" transform="translate(-16.13 -20.85)"/><circle class="cls-7" cx="535.96" cy="284.48" r="40.75"/><g class="cls-8"><path class="cls-3" d="M567.87,295.94a15.79,15.79,0,1,1-15.78-15.78A15.69,15.69,0,0,1,567.87,295.94Zm8,64.92V338.29a23,23,0,0,0-23-23h-1.8a23,23,0,0,0-23,23v22.57a6.31,6.31,0,0,0,6.4,6.39h35A6.31,6.31,0,0,0,575.86,360.86Z" transform="translate(-16.13 -20.85)"/></g><path class="cls-7" d="M649.77,392.62H454.4a16.11,16.11,0,0,1-16.18-16.18h0a16.11,16.11,0,0,1,16.18-16.18H649.77A16.11,16.11,0,0,1,666,376.44h0A16.24,16.24,0,0,1,649.77,392.62Z" transform="translate(-16.13 -20.85)"/><path class="cls-3" d="M643,380.64H461.2a4.1,4.1,0,0,1-4.2-4.2h0a4.09,4.09,0,0,1,4.2-4.19H643a4.09,4.09,0,0,1,4.19,4.19h0A4.22,4.22,0,0,1,643,380.64Z" transform="translate(-16.13 -20.85)"/><path class="cls-7" d="M650,450.55H454.6a16.11,16.11,0,0,1-16.18-16.18h0a16.11,16.11,0,0,1,16.18-16.18H650a16.11,16.11,0,0,1,16.18,16.18h0A16.24,16.24,0,0,1,650,450.55Z" transform="translate(-16.13 -20.85)"/><path class="cls-3" d="M459.6,439h0a4.1,4.1,0,0,1-4.2-4.2h0a4.09,4.09,0,0,1,4.2-4.19h0a4.09,4.09,0,0,1,4.19,4.19h0A4.22,4.22,0,0,1,459.6,439Zm16.78-4.2h0a4.09,4.09,0,0,0-4.2-4.19h0a4.08,4.08,0,0,0-4.19,4.19h0a4.09,4.09,0,0,0,4.19,4.2h0A4.22,4.22,0,0,0,476.38,434.77Zm12.38,0h0a4.09,4.09,0,0,0-4.19-4.19h0a4.09,4.09,0,0,0-4.2,4.19h0a4.1,4.1,0,0,0,4.2,4.2h0A4.1,4.1,0,0,0,488.76,434.77Zm12.59,0h0a4.09,4.09,0,0,0-4.2-4.19h0a4.09,4.09,0,0,0-4.19,4.19h0a4.1,4.1,0,0,0,4.19,4.2h0A4.1,4.1,0,0,0,501.35,434.77Zm12.58,0h0a4.09,4.09,0,0,0-4.19-4.19h0a4.09,4.09,0,0,0-4.2,4.19h0a4.1,4.1,0,0,0,4.2,4.2h0A4.1,4.1,0,0,0,513.93,434.77Zm12.59,0h0a4.09,4.09,0,0,0-4.2-4.19h0a4.08,4.08,0,0,0-4.19,4.19h0a4.09,4.09,0,0,0,4.19,4.2h0A4.22,4.22,0,0,0,526.52,434.77Zm12.58,0h0a4.09,4.09,0,0,0-4.19-4.19h0a4.09,4.09,0,0,0-4.2,4.19h0a4.1,4.1,0,0,0,4.2,4.2h0A4.22,4.22,0,0,0,539.1,434.77Z" transform="translate(-16.13 -20.85)"/><path class="cls-9" d="M286.21,637.73S282,660.9,281,664.89c-.8,3.2-3.19,5.6-5.59,8a10.15,10.15,0,0,0-1.8,3.6,3.68,3.68,0,0,0,.4,3.2c10.59,17,32.76,20.17,33,18.77.4-2.59-3.79-7-8.59-8.79a15.26,15.26,0,0,1-9.59-11h0a22.94,22.94,0,0,1,.2-12.19l5.2-17.78Z" transform="translate(-16.13 -20.85)"/><path class="cls-9" d="M273.22,640.32l5.2,23.38a31.25,31.25,0,0,1-2.8,21.17h0a6.8,6.8,0,0,0,3.59,9.59c12.59,4.39,36.76,13,37.76,12,5.59-4.59-9-12.38-19.78-20.37-7.19-5.39-10-31-10.58-50.34l-11.59,3A1.9,1.9,0,0,0,273.22,640.32Z" transform="translate(-16.13 -20.85)"/><path class="cls-10" d="M294.8,692.66c5.19,1.8,10.78,2.2,16,3a3.77,3.77,0,0,1,1.59.6c5,3.79,7.6,7.79,4.6,10.18-1.2,1-29.77-9.18-40.75-13a4,4,0,0,1-2.2-5.79l2.2-4A88.34,88.34,0,0,0,294.8,692.66Z" transform="translate(-16.13 -20.85)"/><path class="cls-10" d="M278.61,401c-13.18,4.6-21.37,22.57-15.38,39.35,3.4,9.79,20,43.55,36.16,69.72a33.5,33.5,0,0,1,1.6,33,41,41,0,0,0-2.2,5.19c-2.6,8.79-9.39,58.33-12.78,91.3,1.59,3.79,5,8.58,8.39,9.58,11.58-29.76,29.16-83.3,32-92.68a143.7,143.7,0,0,0,4.19-16.59c8-16.77-10.78-97.28-16.38-113.06C308.18,410.2,291.6,396.42,278.61,401Z" transform="translate(-16.13 -20.85)"/><ellipse class="cls-10" cx="270.67" cy="259.51" rx="21.17" ry="27.37"/><path class="cls-10" d="M281.81,283.15a29.49,29.49,0,0,0-57.13-9.58,10.6,10.6,0,0,1-10,6.79,28,28,0,0,0-5.59.6,26.18,26.18,0,0,0-9.39,47.34,13.37,13.37,0,0,1,5.59,9.79,34.19,34.19,0,0,0,37.76,29.16,34.3,34.3,0,0,0,21.77-56.93A29.25,29.25,0,0,0,281.81,283.15Z" transform="translate(-16.13 -20.85)"/><path class="cls-10" d="M286.81,244s12,7.59,10.38,17.58c0,0,6.39-4.59,7.79-20C306.18,230.82,286.81,244,286.81,244Z" transform="translate(-16.13 -20.85)"/><path class="cls-9" d="M306.18,297.34a92.38,92.38,0,0,0,19.38,7.39,53.51,53.51,0,0,0,20.37.6c7.2-1,14.59-3,22.58-4.4a75.59,75.59,0,0,1,24.17-.6,2.69,2.69,0,0,1,2.2,3,2.56,2.56,0,0,1-2.4,2.2h0a74.08,74.08,0,0,0-21.78,4.39c-7,2.4-14.18,5.59-22.17,8a64.53,64.53,0,0,1-25.57,2.4,93.31,93.31,0,0,1-24.57-6.59,9.11,9.11,0,0,1,6.59-17c.2,0,.4.2.6.2Z" transform="translate(-16.13 -20.85)"/><path class="cls-5" d="M300.19,358.06c4.79-14.38,14.38-44.94,13.58-54.73a12.19,12.19,0,0,0-12.18-11.19H259.84a12.8,12.8,0,0,0-12.79,12.39c-.4,12,5.2,39.35,8.39,53.73h44.75Z" transform="translate(-16.13 -20.85)"/><path class="cls-10" d="M286.41,640.52a2.46,2.46,0,0,0,1-2C286.61,608,284.61,569,284,561.62a13.76,13.76,0,0,0-.4-2.6c6.59-36.15,7.59-113.66,8.19-127.25.8-17.77-10-37.95-23.77-38.75-14-.6-29,13.78-33.36,30.17-3,10.78,8.39,68.31,20.77,110.06a61.51,61.51,0,0,1,1.6,27,77.28,77.28,0,0,0-.8,17.58c.6,7.39,8.79,37.15,16.58,62.92a1.7,1.7,0,0,0,1.6,1.4C278.61,643.12,282.61,642.92,286.41,640.52Z" transform="translate(-16.13 -20.85)"/><path class="cls-5" d="M250.85,376.24a37.73,37.73,0,0,0,1.8-18.78c-2-14.78-5.8-42.34-5.4-54.13a11.52,11.52,0,0,1,11.59-11.19H265a15.69,15.69,0,0,0,15,9.59c7.79,0,12.59-4.19,15-9.59h5.79c-6.19,13.39-4,31.17,6.79,41.55-2,7.19-3.8,14.19-5,20A37.63,37.63,0,0,0,304.78,377c5.4,12.79,9.59,33.16,8.19,41.35-43.74,12.39-73.91-9.59-73.91-9.59Z" transform="translate(-16.13 -20.85)"/><polygon class="cls-9" points="270.68 274.09 251.9 272.1 257.89 251.52 270.07 252.92 270.68 274.09"/><path class="cls-11" d="M286.21,273.76,274,272.17l-1.8,6.39c2.8,3,6.2,9.79,10.59,9.79a6.58,6.58,0,0,0,3.8-1.2Z" transform="translate(-16.13 -20.85)"/><path class="cls-9" d="M286.61,283.75c-4.2,0-8.59-2-14.79-7.39-3.59-3-6.19-8.39-6.19-12.18V244h31s2.4,10.79,0,21.37C295,273.37,289.8,283.75,286.61,283.75Z" transform="translate(-16.13 -20.85)"/><path class="cls-9" d="M270.82,260.38c0,4-1.79,7.19-4.19,7.19s-4.79-5.19-4.79-9c0-4,2.59-5.19,4.79-5.19C269,253.19,270.82,256.39,270.82,260.38Z" transform="translate(-16.13 -20.85)"/><path class="cls-10" d="M261.84,246.4A11.51,11.51,0,0,1,273.22,235h10.39a16.92,16.92,0,0,0,8.39-2.2c3.59-2,8.39-1.39,10.79,2,2.79,3.6,4,8.59-3,13.19-3.4,2.19-8.39-.2-11.79.79h-9.78a5.94,5.94,0,0,0-5.8,5.8,3.75,3.75,0,0,1-3.79,3.59h-.4l-1.4-4.79-5.19,7v-14Z" transform="translate(-16.13 -20.85)"/><path class="cls-9" d="M403.66,298.14s-5,9.78-8.39,9.18-5.79-1.39-5.19-6.59c.6-5,3.8-11.78,6.39-15.38s9.79-7.79,11-7.79c3.8.2-1.8,6.19-4.39,9.39-2.6,3-5.2,6.79-3.4,7.59s6.39-5.39,8.79-5.19S403.66,298.14,403.66,298.14Z" transform="translate(-16.13 -20.85)"/><path class="cls-10" d="M294.4,243.6c-1,4.6.4,7.19-14.59,14.38-15.18,7.2-19.77,4.2-24.57,11.79,0,0,2-12.78,10.39-17.18S288.4,245.4,293,235.21C293,235.21,295,240.6,294.4,243.6Z" transform="translate(-16.13 -20.85)"/><path class="cls-9" d="M259.84,310.92a17.49,17.49,0,0,0-2,1.6l-1.8,1.2a35.63,35.63,0,0,1-3.59,2.19c-2.4,1.4-5,2.6-7.59,3.8a76.17,76.17,0,0,1-16.38,4.59,67.42,67.42,0,0,1-33.36-4,78.26,78.26,0,0,1-14.59-7.59,104.3,104.3,0,0,1-12.78-10,137.91,137.91,0,0,1-20.38-24.17,2,2,0,0,1,.6-2.8,1.9,1.9,0,0,1,2.6.4h0a165.6,165.6,0,0,0,22.17,20.58c8,5.79,16.58,10.78,25.77,13.38a66.49,66.49,0,0,0,13.78,2.4,64.07,64.07,0,0,0,13.79-1,59.58,59.58,0,0,0,13.18-4.2c2-1,4.2-2,6.19-3.19,1-.6,2-1.2,2.8-1.8.4-.4,1-.6,1.4-1l1.2-.8.4-.4a6.9,6.9,0,1,1,8.59,10.79Z" transform="translate(-16.13 -20.85)"/><path class="cls-10" d="M291.4,244.6s.6,15.58,14.18,23c0,0-6-11.78-5.59-19.37C300.39,240.4,290.6,239.21,291.4,244.6Z" transform="translate(-16.13 -20.85)"/><path class="cls-10" d="M270.22,686.07a3.07,3.07,0,0,1-.79-3.6c.6-1,2-3.59,3-5.59a1.31,1.31,0,0,1,2.2-.2c6.79,9,16.18,15,26.77,14.18,3.79,1.6,7,6.2,6.59,8.39,0,.4-4.59,1.6-10-.2C274.42,691.26,270.22,686.07,270.22,686.07Z" transform="translate(-16.13 -20.85)"/><path class="cls-9" d="M151.37,269.37s6.59,8.79,4.59,11.79-4,4.59-8.19,1.79c-4.39-2.79-9-8.59-11.18-12.78s-2.6-12.39-2.2-13.38c2-3.4,5,4.39,6.59,8.19s3.8,7.79,5.39,6.39c1.6-1.2-2.19-8.19-.8-10.19C147,259,151.37,269.37,151.37,269.37Z" transform="translate(-16.13 -20.85)"/><path class="cls-12" d="M1033.91,755.59H47.09a30.87,30.87,0,0,1-31-31h0a30.86,30.86,0,0,1,31-31h986.82a30.86,30.86,0,0,1,31,31h0A30.87,30.87,0,0,1,1033.91,755.59Z" transform="translate(-16.13 -20.85)"/><path class="cls-5" d="M261.44,164.1l-13-14.19-159,145.43a42.54,42.54,0,1,0,16.78,20.57,52.18,52.18,0,0,0-2.2-4.79L224.48,198.66l14.38,14.18,14.39-14.58-11.39-11.39,4.39-5.19L258,192.26l10-11.38-12.39-11.39Zm-185,192.77a27.7,27.7,0,1,1,16-35.76A27.69,27.69,0,0,1,76.46,356.87Z" transform="translate(-16.13 -20.85)"/></svg>